<?xml version="1.0" encoding="utf-8"?>
<!-- Generator: Adobe Illustrator 25.2.0, SVG Export Plug-In . SVG Version: 6.00 Build 0)  -->
<svg version="1.1" id="Layer_1" xmlns="http://www.w3.org/2000/svg" xmlns:xlink="http://www.w3.org/1999/xlink" x="0px" y="0px"
	 viewBox="0 0 547.4 135.9" style="enable-background:new 0 0 547.4 135.9;" xml:space="preserve">
<style type="text/css">
	.st0{fill:#FFFFFF;}
	.st1{fill:#0060AE;}
	.st2{fill:#EE2A24;}
	.st3{fill:none;}
</style>
<rect x="409.6" y="0" class="st0" width="137.8" height="135.9"/>
<rect x="137.6" class="st0" width="135.1" height="135.9"/>
<rect x="272.7" y="0" class="st1" width="136.9" height="135.9"/>
<rect class="st2" width="137.8" height="135.9"/>
<g>
	<path class="st0" d="M104,99.7v18.6H29.2V16.9H103v18.6H54.5v21.3h46.4v18.6H54.5v24.3L104,99.7L104,99.7z"/>
	<path class="st1" d="M243.6,99.7v18.6h-77.4V16.9h25.3v82.8H243.6z"/>
	<path class="st0" d="M340.9,54.5l32.5-37.6h22.2v101.4h-25.3V55l-27.5,31.8H339L311.8,55v63.3h-25.3V16.9h22.3L340.9,54.5z"/>
	<path class="st1" d="M479.8,15.4c17.3,0,31.3,5.2,42,15.7c10.7,10.5,16.1,22.6,16.1,36.5c0,14.1-5.4,26.3-16.3,36.6
		c-10.9,10.3-24.8,15.5-41.8,15.5c-17.2,0-31.2-5.1-42-15.4C427,94,421.6,81.8,421.6,67.6c0-13.9,5.4-26.1,16.1-36.6
		S462.5,15.4,479.8,15.4z M479.8,98.7c9.6,0,17.4-2.9,23.2-8.6c5.9-5.7,8.8-13.2,8.8-22.5c0-9.3-2.9-16.9-8.8-22.6
		c-5.9-5.7-13.6-8.5-23.2-8.5c-9.7,0-17.4,2.9-23.3,8.5c-5.9,5.7-8.8,13.2-8.8,22.6c0,9.3,2.9,16.8,8.8,22.5
		C462.4,95.8,470.1,98.7,479.8,98.7z"/>
</g>
<g>
	<path class="st3" d="M547.4,0H0v135.9h547.4V0L547.4,0z"/>
</g>
</svg>
